<svg width="48" height="48" viewBox="0 0 48 48" fill="none" xmlns="http://www.w3.org/2000/svg">
<path d="M8.94375 1.50937C8.44688 1.65 7.75313 2.18437 7.48125 2.625C7.11563 3.21562 7.03125 3.81562 7.03125 5.67188V7.29375L5.65313 7.33125C4.37813 7.36875 4.22813 7.3875 3.7875 7.62187C3.51563 7.75312 3.15 8.04375 2.9625 8.26875C2.6625 8.61562 2.34375 9.36562 2.34375 9.72187C2.34375 9.80625 2.18438 9.84375 1.8 9.84375C1.1625 9.84375 0.54375 10.1156 0.24375 10.5281C0.05625 10.7906 0.046875 10.9031 0.046875 15.075V19.3594L0.2625 19.6687C0.684375 20.2594 0.8625 20.2969 3.04688 20.2969C5.23125 20.2969 5.40938 20.2594 5.83125 19.6687L6.04688 19.3594V15.075C6.04688 10.9031 6.0375 10.7906 5.85 10.5281C5.55 10.1156 4.93125 9.84375 4.29375 9.84375C3.99375 9.84375 3.75 9.825 3.75 9.79688C3.75 9.59062 4.05 9.10312 4.275 8.95312C4.5 8.79375 4.75313 8.76562 5.78438 8.7375L7.03125 8.7L7.05 21.9281L7.07813 35.1469L7.28438 35.3531C7.5375 35.6062 7.9875 35.625 8.25 35.3906C8.42813 35.2312 8.4375 35.1094 8.4375 32.175V29.1375L8.74688 29.2125C9.14062 29.325 38.8594 29.325 39.2625 29.2125L39.5719 29.1281L39.5438 34.9312C39.5156 41.3906 39.5344 41.1562 38.8688 41.475C38.5781 41.6156 37.275 41.625 24 41.625C10.725 41.625 9.42188 41.6156 9.13125 41.475C8.57812 41.2125 8.49375 40.9219 8.45625 39.2625C8.41875 37.6781 8.39062 37.5844 7.86563 37.4531C7.67813 37.4062 7.55625 37.4531 7.35 37.6219L7.07813 37.8562V39.4406C7.07813 40.9781 7.0875 41.025 7.34063 41.55C7.8 42.4781 8.54063 42.9469 9.675 43.0125L10.3875 43.05L10.425 44.2031C10.4531 45.2625 10.4719 45.3656 10.7063 45.7312C10.8469 45.9375 11.1656 46.2375 11.4094 46.3781L11.8594 46.6406H13.7813C14.8406 46.6406 15.8625 46.6031 16.0594 46.5656C16.2844 46.5187 16.5844 46.3406 16.8375 46.1062C17.3625 45.6187 17.5312 45.0844 17.5312 43.9031V43.0312H24H30.4688V43.9031C30.4688 45.1125 30.6375 45.6375 31.1813 46.1156C31.425 46.3219 31.7719 46.5281 31.9594 46.5656C32.1469 46.6125 33.1594 46.6406 34.2188 46.6406H36.1406L36.5906 46.3781C36.8344 46.2375 37.1531 45.9375 37.2938 45.7312C37.5281 45.3656 37.5469 45.2625 37.575 44.2031L37.6125 43.05L38.325 43.0125C39.5063 42.9375 40.2563 42.45 40.725 41.4375L40.9219 41.0156L40.95 24.8625L40.9688 8.7L42.2156 8.7375C43.2469 8.76562 43.5 8.79375 43.725 8.95312C43.95 9.10312 44.25 9.59062 44.25 9.79688C44.25 9.825 44.0063 9.84375 43.7063 9.84375C43.0688 9.84375 42.45 10.1156 42.15 10.5281C41.9625 10.7906 41.9531 10.9031 41.9531 15.075V19.3594L42.1688 19.6687C42.5906 20.2594 42.7688 20.2969 44.9531 20.2969C47.1375 20.2969 47.3156 20.2594 47.7375 19.6687L47.9531 19.3594V15.0937V10.8281L47.7281 10.5094C47.4281 10.0969 46.8656 9.84375 46.2 9.84375C45.8156 9.84375 45.6562 9.80625 45.6562 9.72187C45.6562 9.36562 45.3375 8.61562 45.0375 8.26875C44.85 8.04375 44.4844 7.75312 44.2125 7.62187C43.7719 7.3875 43.6219 7.36875 42.3563 7.33125L40.9875 7.29375L40.95 5.35312C40.9219 3.64687 40.8938 3.375 40.725 3C40.4438 2.4 40.0781 1.99687 39.525 1.70625L39.0469 1.45312L24.1406 1.43437C15.3563 1.425 9.1125 1.45312 8.94375 1.50937ZM38.8688 2.9625C39.4125 3.225 39.5156 3.525 39.5156 4.92188V6.14062H24H8.48438V4.92188C8.48438 3.53437 8.5875 3.225 9.1125 2.97187C9.39375 2.83125 10.725 2.8125 23.9813 2.8125C37.275 2.8125 38.5781 2.82187 38.8688 2.9625ZM39.5438 8.69062L39.5156 9.79688L25.0969 9.84375C10.95 9.89062 10.6688 9.89062 10.5375 10.0687C10.3219 10.3781 10.3688 10.8375 10.65 11.0531L10.9031 11.25H25.2281H39.5625V17.9062V24.5625H37.1719C34.6125 24.5625 34.3969 24.6 34.2188 25.0219C34.1063 25.3031 34.2094 25.7062 34.425 25.8469C34.4906 25.8844 35.6625 25.9406 37.0312 25.9688L39.5156 26.0156L39.4969 26.5969C39.4781 27.2437 39.3094 27.5906 38.8969 27.8062C38.5031 28.0031 9.49688 28.0031 9.10313 27.8062C8.69063 27.5906 8.52188 27.2437 8.50313 26.5969L8.48438 26.0156L20.175 25.9688C31.1156 25.9219 31.8844 25.9125 32.0625 25.7625C32.3156 25.5375 32.3156 25.0219 32.0531 24.7875C31.8656 24.6187 31.6313 24.6094 28.2938 24.5625L24.7219 24.5156L28.0875 21.7031C31.4438 18.8906 31.4531 18.8906 31.4813 18.4969C31.5 18.1875 31.4719 18.0844 31.2938 17.9625C30.9469 17.7187 30.6188 17.7844 30.1219 18.1781C29.8781 18.375 28.05 19.8937 26.0719 21.5531L22.4719 24.5625H20.9625C19.6969 24.5625 19.4813 24.5437 19.5938 24.4406C19.6688 24.3656 21.1688 23.1187 22.9219 21.6562C24.675 20.1937 26.1375 18.9562 26.1844 18.9C26.4938 18.45 26.2219 17.8781 25.6688 17.8312C25.3594 17.8031 25.0969 18.0094 21.3 21.1781L17.2594 24.5625H12.8438H8.4375V16.0781V7.59375H24H39.5719L39.5438 8.69062ZM4.66875 15.0656L4.64062 18.8906H3.04688H1.45312L1.425 15.0656L1.40625 11.25H3.04688H4.6875L4.66875 15.0656ZM46.575 15.0656L46.5469 18.8906H44.9531H43.3594L43.3313 15.0656L43.3125 11.25H44.9531H46.5938L46.575 15.0656ZM16.125 43.9031C16.125 45.2437 16.2281 45.1875 13.9688 45.1875C12.4031 45.1875 12.0844 45.1687 11.9625 45.0375C11.85 44.925 11.8125 44.6812 11.8125 43.9594V43.0312H13.9688H16.125V43.9031ZM36.1875 43.9594C36.1875 44.6812 36.15 44.925 36.0375 45.0375C35.9156 45.1687 35.5969 45.1875 34.0312 45.1875C31.7719 45.1875 31.875 45.2437 31.875 43.9031V43.0312H34.0312H36.1875V43.9594Z" fill="#504587"/>
<path d="M10.9969 31.8281C10.4719 32.0531 10.3125 32.4468 10.3125 33.4781C10.3125 34.6593 10.4812 35.1937 11.025 35.8124C11.8312 36.7031 11.8312 36.7031 14.9531 36.7312C17.9812 36.7687 18.1031 36.7499 18.4219 36.1499C18.5531 35.9062 18.5812 35.6624 18.5437 34.7812C18.5156 33.8437 18.4781 33.6374 18.2625 33.2249C17.9719 32.6718 17.4844 32.2124 16.8844 31.9312C16.4812 31.7437 16.275 31.7343 13.875 31.7156C11.8031 31.6968 11.2406 31.7156 10.9969 31.8281ZM16.4062 33.2999C16.9406 33.5812 17.1562 33.9937 17.1562 34.7531V35.3437H14.9156C12.75 35.3437 12.675 35.3343 12.3656 35.1281C11.9156 34.8281 11.7187 34.3874 11.7187 33.6749V33.0937H13.8562C15.8906 33.0937 16.0125 33.1031 16.4062 33.2999Z" fill="#504587"/>
<path d="M31.425 31.8281C30.6656 32.0624 30.1031 32.5312 29.7375 33.2343C29.5219 33.6374 29.4844 33.8437 29.4563 34.7812C29.4188 35.6624 29.4469 35.9062 29.5781 36.1499C29.8969 36.7499 30.0188 36.7687 33.0469 36.7312C36.1688 36.7031 36.1688 36.7031 36.975 35.8124C37.5188 35.1937 37.6875 34.6593 37.6875 33.4781C37.6875 32.4281 37.5188 32.0437 36.9844 31.8187C36.5438 31.6406 32.025 31.6406 31.425 31.8281ZM36.2813 33.6749C36.2813 34.3874 36.0844 34.8281 35.6344 35.1281C35.325 35.3343 35.25 35.3437 33.0844 35.3437H30.8438V34.7531C30.8438 33.9937 31.0594 33.5812 31.5938 33.2999C31.9875 33.1031 32.1094 33.0937 34.1438 33.0937H36.2813V33.6749Z" fill="#504587"/>
<path d="M20.3813 37.0781C20.0344 37.3219 19.95 37.6875 19.9875 38.8969C20.0156 39.9844 20.025 40.0406 20.2781 40.2844L20.5313 40.5469H24H27.4688L27.7219 40.2844C27.975 40.0406 27.9844 39.9844 28.0125 38.8969C28.0406 38.1469 28.0125 37.6687 27.9281 37.4906C27.7031 36.9281 27.75 36.9375 24 36.9375C21.15 36.9375 20.5406 36.9562 20.3813 37.0781ZM26.625 38.7656V39.1875H24H21.375V38.7656V38.3438H24H26.625V38.7656Z" fill="#504587"/>
</svg>
