<svg width="48" height="48" viewBox="0 0 48 48" fill="none" xmlns="http://www.w3.org/2000/svg">
<path d="M1.44376 3.9C1.00313 4.05937 0.459385 4.54687 0.215635 4.99687C0.0562595 5.27812 0.0468845 6.13125 0.0187595 18.5156C9.53395e-06 28.2844 0.0187595 31.8375 0.103135 32.1281C0.234385 32.625 0.740635 33.225 1.25626 33.4969L1.64063 33.7031L12.525 33.7312L23.4094 33.75L23.6531 33.5531C23.9438 33.3375 23.9906 32.8781 23.775 32.5687C23.6438 32.3906 23.3906 32.3906 12.7594 32.3438L1.88438 32.2969L1.66876 32.0812C1.50938 31.9312 1.48126 31.8375 1.54688 31.725C1.66876 31.5375 13.8844 19.7812 13.9594 19.7812C13.9875 19.7812 14.5594 20.2875 15.2156 20.9062C16.5469 22.1531 16.9781 22.4812 17.8406 22.875C19.7438 23.7656 22.1813 23.7844 24.0656 22.9312C24.8813 22.5469 25.5844 22.0406 26.5781 21.0937C27.0938 20.6062 27.6281 20.1 27.7688 19.9781L28.0219 19.7531L29.0438 20.7094C29.8875 21.4969 30.1125 21.6562 30.3656 21.6562C30.75 21.6562 31.0313 21.3656 31.0313 20.9719C31.0313 20.7094 30.9 20.55 30.0281 19.7062L29.0344 18.7406L29.4469 18.3375C29.6719 18.1125 32.2688 15.6187 35.2031 12.7875L40.5469 7.65L40.5938 14.1469C40.6406 20.4375 40.65 20.6437 40.8188 20.775C41.1281 20.9906 41.5875 20.9437 41.8031 20.6625C42 20.4187 42 20.3531 42 13.1062C42 7.99687 41.9719 5.67187 41.8969 5.38125C41.7469 4.8 41.1 4.09687 40.5281 3.9C40.1344 3.76875 38.2125 3.75 20.9625 3.75937C4.37814 3.75937 1.77188 3.7875 1.44376 3.9ZM40.2844 5.38125C40.4813 5.55937 40.5281 5.64375 40.4531 5.75625C40.3031 5.99062 25.05 20.6344 24.6281 20.9531C24.0938 21.3562 23.4281 21.6844 22.6406 21.9375C21.7594 22.2094 20.2969 22.2188 19.3875 21.9469C18.0563 21.5625 17.5688 21.2156 15.2438 18.975C7.28439 11.3531 1.54688 5.78437 1.51876 5.68125C1.50001 5.60625 1.60313 5.46562 1.74376 5.35312L1.99688 5.15625H21.0094H40.0219L40.2844 5.38125ZM7.30313 13.2937C10.3781 16.2562 12.8906 18.7031 12.8906 18.7312C12.8906 18.7687 10.5281 21.075 7.64063 23.85C4.75313 26.625 2.16563 29.1187 1.89376 29.3812L1.40626 29.85V18.7594C1.40626 8.37187 1.41563 7.66875 1.56563 7.79062C1.65001 7.86562 4.23751 10.3406 7.30313 13.2937Z" fill="#504587"/>
<path d="M35.8031 21.8625C33.7125 22.0125 31.6031 22.8469 29.8406 24.2062C29.0531 24.8156 27.8531 26.1469 27.3 27.0375C26.1844 28.8187 25.6875 30.4406 25.6219 32.55C25.5656 34.1625 25.6781 35.1094 26.0813 36.375C28.4438 43.7812 37.3313 46.6219 43.5375 41.9531C48.2156 38.4375 49.3688 31.8562 46.1719 26.8969C44.5875 24.4406 41.9063 22.6125 39.0375 22.0406C37.9125 21.825 37.0031 21.7687 35.8031 21.8625ZM37.9875 23.2969C38.3344 23.325 38.9906 23.4562 39.4313 23.5875C45.6656 25.3875 48.4969 32.4844 45.1875 38.0531C43.3594 41.1281 39.8531 43.0031 36.2813 42.8062C33.7594 42.675 31.4906 41.625 29.7 39.7687C28.3875 38.4094 27.5438 36.8156 27.1688 34.9781C26.9156 33.7781 26.9719 31.65 27.2813 30.5156C27.525 29.6156 28.1438 28.275 28.6875 27.4594C29.2125 26.6906 30.4406 25.4625 31.2094 24.9375C32.0531 24.375 33.3844 23.7656 34.2938 23.5312C35.1094 23.3156 36.4594 23.1656 37.0313 23.2125C37.2094 23.2312 37.6406 23.2687 37.9875 23.2969Z" fill="#504587"/>
<path d="M38.6625 32.7375L35.625 35.7563L33.9094 34.05C32.4 32.55 32.1563 32.3438 31.8938 32.3438C31.5 32.3438 31.2188 32.6344 31.2188 33.0281C31.2188 33.3 31.4344 33.5438 33.3094 35.4188C34.4625 36.5625 35.475 37.5 35.5688 37.5C35.6531 37.5 35.8406 37.4438 35.9813 37.3688C36.4313 37.125 42.6375 30.825 42.7125 30.5344C42.8063 30.1313 42.5063 29.775 42.0469 29.7375C41.6906 29.7094 41.6625 29.7281 38.6625 32.7375Z" fill="#504587"/>
</svg>
