<svg width="24" height="24" viewBox="0 0 24 24" fill="none" xmlns="http://www.w3.org/2000/svg">
<path fill-rule="evenodd" clip-rule="evenodd" d="M3.39541 3.39541C3.64858 3.14223 3.99196 3 4.35 3H14.15C14.508 3 14.8514 3.14223 15.1046 3.39541C15.3578 3.64858 15.5 3.99196 15.5 4.35V8H19.15C19.508 8 19.8514 8.14223 20.1046 8.39541C20.3578 8.64858 20.5 8.99196 20.5 9.35V19.15C20.5 19.508 20.3578 19.8514 20.1046 20.1046C19.8514 20.3578 19.508 20.5 19.15 20.5H9.35C8.99196 20.5 8.64858 20.3578 8.39541 20.1046C8.14223 19.8514 8 19.508 8 19.15V15.5H4.35C3.99196 15.5 3.64858 15.3578 3.39541 15.1046C3.14223 14.8514 3 14.508 3 14.15V4.35C3 3.99196 3.14223 3.64858 3.39541 3.39541ZM9.5 19H19V9.5H9.5V19ZM14 8H9.35C8.99196 8 8.64858 8.14223 8.39541 8.39541C8.14223 8.64858 8 8.99196 8 9.35V14H4.5V4.5H14V8Z" fill="#4F1F7E"/>
</svg>
