<svg width="48" height="48" viewBox="0 0 48 48" fill="none" xmlns="http://www.w3.org/2000/svg">
<path d="M21.1781 0.131252C20.1844 0.393753 19.2844 1.2 18.9281 2.14688C18.7687 2.5875 18.7406 2.80313 18.7781 3.46875C18.8062 3.90938 18.8437 4.34063 18.8625 4.43438C18.8812 4.575 18.75 4.65938 18.1406 4.86563C16.9219 5.2875 15.8344 5.78438 14.8031 6.40313C10.5844 8.91563 7.58437 12.9188 6.375 17.625C5.89687 19.4813 5.8875 19.65 5.84062 24.9281L5.79375 29.925L6.00937 30.15C6.28125 30.4406 6.75 30.45 6.99375 30.1781C7.1625 29.9906 7.17187 29.7281 7.22812 25.0406C7.26562 20.8406 7.30312 19.9781 7.44375 19.2188C8.1 15.75 9.6375 12.7781 12.0469 10.35C13.9969 8.38125 16.2281 6.975 18.6562 6.1875L19.5469 5.89688L20.4656 6.79688C20.9719 7.30313 21.375 7.71563 21.3562 7.725C21.3375 7.73438 20.925 7.8375 20.4375 7.95C15.7594 9.06563 11.6906 12.8344 10.1719 17.475C9.43125 19.7625 9.38437 20.5031 9.375 29.925V37.5938H8.29687H7.21875V35.2125C7.21875 33.9 7.19062 32.7563 7.1625 32.6719C7.06875 32.4469 6.6 32.2406 6.32812 32.3063C5.84062 32.4281 5.8125 32.5594 5.8125 35.1563V37.5469L5.34375 37.7156C4.425 38.0438 3.9375 38.7281 3.9375 39.6938C3.9375 40.2656 4.09687 40.6688 4.47187 41.0719C4.69687 41.3156 4.70625 41.3625 4.70625 42.7969C4.70625 44.2313 4.69687 44.2781 4.47187 44.5219C4.04062 44.9813 3.91875 45.3469 3.95625 46.0406C4.00312 46.8563 4.32187 47.3531 5.05312 47.7375L5.55 48H8.175C9.975 48 10.9312 47.9625 11.1937 47.8875C11.7375 47.7188 12.3937 47.0438 12.5531 46.4813C12.75 45.7875 12.5625 45 12.0656 44.4656C11.8875 44.2688 11.8781 44.1281 11.8781 42.8156C11.8781 41.3813 11.8781 41.3719 12.1406 41.0344C12.8156 40.1438 12.8062 39.15 12.1312 38.3625L11.8219 37.9969L12.6469 37.1625C14.0437 35.7469 15.0281 34.0125 15.525 32.0906C15.8437 30.8531 15.9281 29.0813 15.7125 27.8719C15.6 27.2156 14.4937 23.0531 14.1187 21.8719C14.0719 21.7125 14.1375 21.6281 14.4562 21.4406C16.0031 20.5313 18.6562 18.2063 20.0719 16.5094C21.4969 14.8031 23.0156 12.2063 23.6719 10.3313C23.8312 9.90938 23.9719 9.5625 24 9.5625C24.0281 9.5625 24.1687 9.9 24.3094 10.3031C24.8719 11.8969 26.5594 14.925 27.3562 15.7688C27.8062 16.2563 28.5937 16.0125 28.5937 15.3938C28.5937 15.2344 28.4344 14.9156 28.1906 14.5781C27.1875 13.1906 26.1281 11.2125 25.5187 9.53438L25.3125 9H25.5562C25.9781 9 27.2156 9.29063 28.2094 9.61875C32.1562 10.9313 35.2687 14.1 36.5531 18.1125C36.8812 19.1531 37.125 20.5031 37.125 21.3094V21.8438L36.4969 21.525C34.7906 20.6625 32.775 19.2844 31.2187 17.9063C30.5625 17.3344 30.3 17.1563 30.0844 17.1563C29.7187 17.1563 29.4375 17.4563 29.4375 17.85C29.4375 18.1313 29.5312 18.2625 30.1594 18.8438C30.9187 19.5469 32.5781 20.8313 33.4969 21.4125C33.9 21.675 34.0312 21.8063 33.9844 21.9281C33.8156 22.4719 32.5312 27.1406 32.4281 27.6094C32.2687 28.3313 32.2594 30.7969 32.4187 31.5469C32.9062 33.825 34.1062 36.0375 35.625 37.4438L36.1969 37.9688L35.8781 38.3438C35.1937 39.15 35.1844 40.1344 35.8594 41.0344C36.1219 41.3719 36.1219 41.3813 36.1219 42.8156C36.1219 44.1281 36.1125 44.2688 35.9344 44.4656C35.4375 45 35.25 45.7875 35.4469 46.4813C35.6062 47.0438 36.2625 47.7188 36.8062 47.8875C37.0687 47.9625 38.025 48 39.8156 48H42.4312L42.9469 47.7375C43.6781 47.3719 43.9969 46.875 44.0437 46.0406C44.0812 45.3469 43.9594 44.9813 43.5281 44.5219C43.3031 44.2781 43.2937 44.2313 43.2937 42.7969C43.2937 41.3438 43.3031 41.3156 43.5375 41.0719C44.2875 40.2844 44.2219 38.8031 43.3969 38.1094C43.2375 37.9875 42.9094 37.8094 42.6562 37.7156L42.1875 37.5469V29.3156C42.1875 24.1219 42.15 20.7469 42.0844 20.175C41.3156 13.1156 36.4969 7.10625 29.7844 4.82813C29.25 4.65 29.1187 4.56563 29.1375 4.43438C29.1562 4.34063 29.1937 3.90938 29.2219 3.46875C29.2781 2.44688 29.0625 1.81875 28.4062 1.09688C27.7312 0.356255 27.0094 0.0468788 25.9687 0.0468788C25.1625 0.0468788 24.6375 0.21563 24.1687 0.628128C24.0375 0.750004 23.9719 0.731255 23.6437 0.515629C22.9125 0.0281296 22.05 -0.103123 21.1781 0.131252ZM22.575 1.54688C22.7625 1.63125 23.0812 1.86563 23.2781 2.0625C23.8125 2.625 24.1781 2.5875 24.9094 1.89375C26.0437 0.806252 27.8437 1.70625 27.8437 3.34688C27.8437 4.66875 26.6437 6.10313 24.5906 7.22813L24.0187 7.54688L23.4187 7.22813C21.3844 6.14063 20.1562 4.6875 20.1562 3.35625C20.1562 2.7 20.3906 2.175 20.8312 1.84688C21.4219 1.40625 21.9937 1.3125 22.575 1.54688ZM29.7844 6.3375C34.8562 8.22188 38.6906 12.3844 40.1625 17.5781C40.7344 19.5938 40.7156 19.2375 40.7531 28.8L40.7906 37.5938H39.7125H38.6344L38.5969 29.0813C38.5594 20.9344 38.55 20.5313 38.3625 19.5469C37.4156 14.5406 34.1062 10.4625 29.475 8.57813C28.9219 8.35313 28.0594 8.07188 27.5719 7.95938C27.075 7.8375 26.6625 7.73438 26.6437 7.725C26.625 7.71563 27 7.30313 27.4875 6.81563C28.5 5.79375 28.3875 5.8125 29.7844 6.3375ZM22.4531 9.62813C21.3375 12.5719 19.9031 14.7938 17.6344 17.0719C15.8437 18.8531 13.6594 20.4375 11.4469 21.5625L10.875 21.8438V21.3094C10.875 20.5031 11.1187 19.1531 11.4469 18.1125C12.7312 14.1 15.8437 10.9313 19.7906 9.61875C20.8406 9.27188 21.9 9.01875 22.3781 9.00938L22.6875 9L22.4531 9.62813ZM13.5375 24.9844C13.9219 26.3813 14.2969 27.8344 14.3531 28.2188C14.5031 29.175 14.4094 30.7969 14.1562 31.7813C13.7437 33.3938 12.5719 35.3813 11.4281 36.4125C11.1656 36.6469 10.9125 36.8438 10.8656 36.8438C10.8187 36.8438 10.7812 34.0125 10.7812 30.1594V23.475L11.7937 22.9594C12.3469 22.6688 12.8062 22.4438 12.8156 22.4438C12.825 22.4531 13.1437 23.5969 13.5375 24.9844ZM36.2719 22.9781L37.2187 23.4563V30.15C37.2187 34.8844 37.1906 36.8438 37.1156 36.8438C36.9656 36.8438 35.9906 35.8406 35.4937 35.1563C34.7344 34.125 34.1906 32.8969 33.825 31.4063C33.675 30.75 33.6656 28.5281 33.825 27.8438C33.9656 27.225 35.2687 22.5 35.3062 22.5C35.3156 22.5 35.7469 22.7156 36.2719 22.9781ZM11.0156 39.2344C11.2781 39.4875 11.2969 39.6281 11.1469 39.975C10.9594 40.3781 10.7062 40.4156 8.1375 40.3875C5.93437 40.3594 5.71875 40.3406 5.54062 40.1813C5.2875 39.9469 5.27812 39.4406 5.53125 39.1875C5.70937 39.0094 5.84062 39 8.25 39H10.7906L11.0156 39.2344ZM42.4687 39.1875C42.7219 39.4406 42.7125 39.9469 42.4594 40.1813C42.2812 40.3406 42.0656 40.3594 39.8625 40.3875C37.2937 40.4156 37.0406 40.3781 36.8531 39.975C36.7031 39.6281 36.7219 39.4875 36.9844 39.2344L37.2094 39H39.75C42.1594 39 42.2906 39.0094 42.4687 39.1875ZM10.4437 41.9625C10.5281 42.1781 10.5094 43.5281 10.425 43.6688C10.3594 43.7531 9.8625 43.7813 8.24062 43.7625L6.14062 43.7344L6.1125 42.9C6.09375 42.4406 6.10312 42.0094 6.13125 41.9344C6.16875 41.8406 6.61875 41.8125 8.2875 41.8125C10.1156 41.8125 10.3969 41.8313 10.4437 41.9625ZM41.8594 42.7969V43.7344L39.7594 43.7625C38.1375 43.7813 37.6406 43.7531 37.575 43.6688C37.4906 43.5281 37.4719 42.1781 37.5562 41.9625C37.6125 41.8313 37.8656 41.8125 39.7406 41.8313L41.8594 41.8594V42.7969ZM10.8656 45.3281C11.3156 45.5531 11.3812 46.0031 11.0156 46.3594L10.7906 46.5938H8.26875C5.86875 46.5938 5.74687 46.5844 5.55 46.4063C5.25 46.125 5.26875 45.6375 5.5875 45.3844C5.82187 45.1969 5.95312 45.1875 8.22187 45.1875C10.125 45.1875 10.6594 45.2156 10.8656 45.3281ZM42.4125 45.3844C42.7312 45.6375 42.75 46.125 42.45 46.4063C42.2531 46.5844 42.1312 46.5938 39.7312 46.5938H37.2094L36.9844 46.3594C36.6281 46.0125 36.7125 45.4594 37.1531 45.2813C37.2656 45.2344 38.4375 45.1969 39.7594 45.1969C42.0562 45.1875 42.1781 45.1969 42.4125 45.3844Z" fill="#504587"/>
</svg>
