<svg width="48" height="48" viewBox="0 0 48 48" fill="none" xmlns="http://www.w3.org/2000/svg">
<path d="M16.5469 5.5687C16.0688 5.77495 15.6656 6.27182 15.4875 6.89058C15.3938 7.19995 15 8.69057 14.6156 10.1906L13.9219 12.9375H12.4969H11.0813L11.0438 11.1749C11.0156 9.44057 11.0156 9.40308 10.7625 9.02808C10.3219 8.35307 10.1719 8.33432 6.54376 8.36245C3.51563 8.39058 3.37501 8.39995 3.12188 8.58745C2.98126 8.69057 2.76563 8.92495 2.65313 9.0937C2.44688 9.38432 2.43751 9.48745 2.43751 11.1562V12.9093L1.89376 12.9656C1.17188 13.0218 0.628131 13.3125 0.309381 13.7999L0.0468812 14.1937L0.0187562 27.5531C6.15325e-06 37.0125 0.0187562 41.025 0.0937562 41.2781C0.225006 41.7187 0.703131 42.2718 1.09688 42.4312C1.54688 42.6281 46.4531 42.6281 46.9031 42.4312C47.2969 42.2718 47.775 41.7187 47.9063 41.2781C47.9813 41.025 48 37.0125 47.9813 27.5531L47.9531 14.1937L47.6906 13.7999C47.55 13.5843 47.2594 13.3125 47.0344 13.1999L46.6406 12.9843L40.3594 12.9562L34.0781 12.9281L33.2531 9.7312C32.7375 7.7062 32.3625 6.41245 32.2313 6.22495C32.1188 6.06557 31.8844 5.8312 31.7063 5.70932C31.4063 5.50307 31.2563 5.48433 30.1781 5.4562C29.0719 5.42807 28.9688 5.43745 28.7906 5.61557C28.5281 5.87807 28.5281 6.38432 28.7906 6.6187C28.95 6.7687 29.1656 6.8062 29.9625 6.82495C30.5531 6.8437 30.9656 6.89995 31.0219 6.97495C31.0688 7.0312 31.4344 8.32495 31.8281 9.8437C32.2219 11.3624 32.5594 12.6843 32.5875 12.7687C32.6344 12.9281 32.1844 12.9375 24 12.9375C15.8156 12.9375 15.3656 12.9281 15.4125 12.7687C15.4406 12.6843 15.7781 11.3718 16.1719 9.85307C16.5563 8.33432 16.9219 7.0312 16.9781 6.96558C17.0625 6.87183 17.9719 6.8437 21.5813 6.8437H26.0813L26.3531 6.57182C26.6719 6.2437 26.6906 6.0187 26.4281 5.6812L26.2406 5.43745H21.5344C17.8594 5.44682 16.7625 5.47495 16.5469 5.5687ZM9.63751 11.3624L9.65626 12.9375H6.75001H3.84376V11.3437V9.74995L6.73126 9.7687L9.60938 9.79683L9.63751 11.3624ZM46.425 14.5031C46.575 14.6343 46.5938 14.8218 46.5938 16.0968V17.5312H45.75H44.9063V17.0062C44.9063 16.6781 44.85 16.3781 44.7469 16.2093C44.4188 15.6562 44.4 15.6562 39.6844 15.6562C35.7844 15.6562 35.3625 15.6749 35.0625 15.8249C34.65 16.0218 34.4063 16.5 34.4063 17.0812V17.5312H32.6625H30.9188L30.2719 17.1562C28.3125 16.0031 26.3063 15.4687 24 15.4687C21.6938 15.4687 19.6875 16.0031 17.7281 17.1562L17.0813 17.5312H13.1344H9.18751L8.96251 17.0812C8.03438 15.2624 5.46563 15.225 4.53751 17.0156L4.26563 17.5312H2.84063H1.40626V16.1062C1.40626 14.9156 1.43438 14.6625 1.56563 14.5124C1.70626 14.3531 2.53126 14.3437 23.9813 14.3437C44.5688 14.3437 46.2656 14.3531 46.425 14.5031ZM25.8844 17.0156C30.0844 17.7468 33.4969 20.9062 34.5938 25.0875C35.55 28.7437 34.4344 32.7937 31.7344 35.4843C26.325 40.8656 17.3156 39.2625 14.0625 32.325C12.3938 28.7625 12.8625 24.4125 15.2719 21.2156C16.9031 19.0406 19.4156 17.4937 22.0594 17.0156C22.9875 16.8468 24.9375 16.8468 25.8844 17.0156ZM7.40626 17.3343C7.72501 17.5593 7.89376 18.0749 7.77188 18.4874C7.51876 19.4343 6.19688 19.5937 5.75626 18.7312C5.22188 17.6906 6.44063 16.6593 7.40626 17.3343ZM43.5 18.1875V19.3125H39.6563H35.8125V18.2531C35.8125 17.6625 35.8406 17.1562 35.8781 17.1281C35.9063 17.0906 37.6406 17.0625 39.7219 17.0625H43.5V18.1875ZM4.50001 19.3593C5.07188 20.5312 6.65626 21.0562 7.83751 20.4562C8.28751 20.2218 8.97188 19.5093 9.05626 19.1812L9.11251 18.9375H12.2531H15.3938L14.8125 19.5656C13.2844 21.2343 12.1781 23.5499 11.7938 25.875C11.625 26.9062 11.6531 28.95 11.85 29.9437C12.3 32.2781 13.35 34.4062 14.8594 36.0656L15.3938 36.6562H12.2156C9.14063 36.6562 9.02813 36.6656 8.83126 36.8437C8.53126 37.125 8.55001 37.6125 8.86876 37.8656C9.11251 38.0625 9.21563 38.0625 13.1344 38.0625H17.1563L17.6063 38.3437C19.4156 39.45 21.825 40.125 24 40.125C26.175 40.125 28.5844 39.45 30.3938 38.3437L30.8438 38.0625H38.7188H46.5938V39.4968C46.5938 40.4906 46.5563 40.9687 46.4813 41.0437C46.3219 41.2031 1.67813 41.2031 1.51876 41.0437C1.44376 40.9687 1.40626 40.4906 1.40626 39.4968V38.0625H3.78751C6.43126 38.0625 6.49688 38.0437 6.61876 37.4343C6.66563 37.1906 6.62813 37.0875 6.44063 36.9L6.19688 36.6562H3.79688H1.40626V27.7968V18.9375H2.85001H4.29376L4.50001 19.3593ZM34.4063 19.3687C34.4063 19.9125 34.6125 20.3531 34.9594 20.5593C35.2031 20.7 35.6531 20.7187 39.6563 20.7187C44.5031 20.7187 44.475 20.7187 44.7656 20.1562C44.8406 20.0062 44.9063 19.6687 44.9063 19.4062V18.9375H45.75H46.5938V27.7968V36.6562H39.6094H32.6156L33.2344 35.9437C34.7625 34.1906 35.7 32.2781 36.15 29.9437C36.3656 28.8562 36.3656 26.7843 36.1594 25.6406C35.7563 23.4 34.6688 21.1875 33.1875 19.5656L32.6063 18.9375H33.5063H34.4063V19.3687Z" fill="#504587"/>
<path d="M22.8656 18.0938C20.7281 18.3469 18.7406 19.3125 17.1937 20.85C15.8437 22.2 15.0375 23.5687 14.5594 25.3875C14.3437 26.1844 14.3156 26.475 14.3156 27.7969C14.3156 29.1094 14.3437 29.4094 14.55 30.1875C15.7312 34.5656 19.5281 37.5 24 37.5C28.5375 37.5 32.3812 34.4625 33.4969 30C33.6562 29.3531 33.6937 28.9312 33.6937 27.75C33.6844 26.475 33.6562 26.1844 33.4406 25.3594C32.1656 20.625 27.675 17.5312 22.8656 18.0938ZM25.9687 19.6969C27.5531 20.0625 29.325 21.1594 30.3656 22.3969C31.1812 23.3812 31.7437 24.4875 32.1187 25.875C32.3719 26.7844 32.3531 28.8469 32.0719 29.8594C31.4062 32.325 29.775 34.2562 27.4312 35.3438C26.175 35.9344 25.65 36.0469 24 36.0469C22.35 36.0469 21.825 35.9344 20.5687 35.3438C19.5937 34.8937 18.8437 34.3781 18.15 33.6937C14.0719 29.6156 15.1969 22.8 20.3719 20.2969C22.1906 19.425 23.9812 19.2281 25.9687 19.6969Z" fill="#504587"/>
<path d="M20.3906 22.4437C19.65 22.7625 19.1531 23.1281 18.7219 23.6812C18.1687 24.4031 17.9719 25.0219 17.9719 26.0156C17.9719 27.5906 18.1687 27.8812 21.2625 30.9562C23.4844 33.1875 23.7094 33.375 24 33.375C24.3 33.375 24.525 33.1781 26.8687 30.8156C29.6437 28.0312 29.8219 27.7969 30.0187 26.6062C30.2906 24.9469 29.4094 23.2969 27.8625 22.5656C27.2719 22.2844 27.1687 22.2656 26.2031 22.2656C25.2281 22.2656 25.125 22.2844 24.5812 22.5562L24 22.8469L23.4187 22.5562C22.9125 22.3031 22.7344 22.2656 21.9 22.2375C21.0656 22.2188 20.8875 22.2375 20.3906 22.4437ZM22.7719 23.8125C22.9875 23.9156 23.2969 24.1031 23.4562 24.2344C23.8125 24.5344 24.1594 24.5344 24.5719 24.225C25.1437 23.7937 25.5937 23.625 26.25 23.625C27.6187 23.625 28.6312 24.6375 28.6406 26.0156C28.6406 27 28.4062 27.3375 26.0625 29.6719L24 31.7344L21.9469 29.6812C19.5937 27.3281 19.3687 27.0187 19.3687 26.0625C19.3594 25.0594 19.8844 24.2062 20.7656 23.8031C21.2812 23.5687 22.2281 23.5687 22.7719 23.8125Z" fill="#504587"/>
</svg>
