<svg width="48" height="48" viewBox="0 0 48 48" fill="none" xmlns="http://www.w3.org/2000/svg">
<path d="M19.875 1.83754C18.8531 2.10942 18.0094 2.89692 17.625 3.91879C17.4375 4.41567 17.4375 4.59379 17.4563 14.2313L17.4844 24.0469L17.7469 24.5719C18.0469 25.2 18.7688 25.9032 19.3875 26.1844C19.8281 26.3907 19.8656 26.3907 27.5625 26.4375L35.2969 26.4844L35.3438 28.4813C35.4094 31.4719 35.25 31.4719 39.225 28.5938L42.2156 26.4375H43.7906C45.15 26.4375 45.4406 26.4094 45.8813 26.2407C46.6031 25.9782 47.2688 25.3407 47.6438 24.5813L47.9531 23.9532V14.1094V4.26567L47.6906 3.69379C47.3531 2.97192 46.7156 2.33442 45.9844 1.99692L45.4219 1.73442H36.2531H27.075L26.8969 1.95942C26.6531 2.25942 26.6719 2.64379 26.9344 2.88754L27.15 3.09379H35.9438C42.0375 3.09379 44.8594 3.12192 45.1406 3.19692C45.3656 3.25317 45.7219 3.44067 45.9281 3.61879C46.6406 4.23754 46.6031 3.59067 46.575 14.2688L46.5469 23.7938L46.2656 24.1969C45.75 24.9282 45.5813 24.975 43.5 25.0313L41.6719 25.0782L39.2531 26.8313C37.9219 27.8063 36.8156 28.5938 36.7969 28.5938C36.7781 28.5938 36.75 27.9 36.7313 27.0469C36.7031 25.5844 36.6938 25.4907 36.4875 25.2938L36.2719 25.0782L28.1344 25.0313L19.9875 24.9844L19.6219 24.6938C19.425 24.5344 19.1719 24.2438 19.0594 24.0375L18.8438 23.6719V14.1282C18.8438 6.33754 18.8625 4.52817 18.9656 4.28442C19.1438 3.87192 19.7813 3.31879 20.2219 3.19692C20.4188 3.14067 21.4688 3.09379 22.6031 3.09379C24.5906 3.09379 24.6281 3.09379 24.825 2.87817C25.0781 2.60629 25.0875 2.25004 24.8531 1.95942C24.675 1.73442 24.6563 1.73442 22.5281 1.71567C20.8781 1.69692 20.2688 1.72504 19.875 1.83754Z" fill="#504587"/>
<path d="M6.49687 5.47501C5.75625 5.71876 5.25 6.10313 3.76875 7.57501C2.2125 9.10313 1.65 9.84376 1.06875 11.1094C0.299999 12.7875 0.0468744 13.9969 0.0562494 15.9844C0.0656244 17.625 0.234374 18.5156 0.824999 19.9781C1.35 21.2906 3.39375 24.9656 3.85312 25.425C4.1625 25.7344 4.3875 25.7531 4.725 25.4906C5.12812 25.1719 5.05312 24.8813 4.17187 23.3531C2.87812 21.1594 1.99687 19.3031 1.73437 18.2531C1.3125 16.5656 1.33125 14.925 1.79062 13.2188C2.15625 11.8594 3.14062 10.0969 4.02187 9.24376L4.3875 8.88751L4.52812 9.10313C4.75312 9.47813 10.6875 20.625 10.6875 20.6813C10.6875 20.7094 10.5844 20.8688 10.4437 21.0188C10.3125 21.1781 10.0969 21.525 9.95625 21.7875C9.73125 22.2094 9.70312 22.3688 9.70312 23.175C9.70312 24.0563 9.7125 24.0938 10.1062 24.8625C11.925 28.3594 15.6 32.4094 19.8094 35.5688C21.45 36.7875 21.7875 36.9563 22.7344 37.0125C23.7094 37.0594 24.3562 36.825 25.1719 36.1406L25.7625 35.6438L31.5094 38.8781C34.6781 40.6594 37.2844 42.1313 37.3125 42.15C37.3594 42.2063 36.9937 42.5156 36.225 43.0781C34.4156 44.4 31.9031 45.075 29.6906 44.8219C27.9281 44.625 27.0281 44.2875 24.5906 42.9281C17.6437 39.0656 12.1406 34.3781 7.5 28.3688C6.76875 27.4219 6.72187 27.375 6.38437 27.375C5.95312 27.375 5.70937 27.6094 5.7 28.0219C5.68125 28.7063 9.14062 32.7656 12.2812 35.7375C15.7687 39.0469 20.025 42.0844 24.5625 44.5219C27.1312 45.9 29.1469 46.425 31.2656 46.2656C34.2 46.05 36.3563 45.0375 38.7469 42.7688C40.2 41.3906 40.4625 41.0625 40.6875 40.3219C40.9219 39.5719 40.9219 39.0844 40.6875 38.3063C40.3594 37.2656 39.8437 36.7969 37.7156 35.6438C35.8969 34.6594 35.5125 34.5375 35.2125 34.8375C34.9594 35.0813 34.9219 35.4281 35.1187 35.6906C35.2219 35.8219 36.0562 36.3469 36.9844 36.8531C38.7656 37.8281 39.1969 38.175 39.3656 38.7844C39.5812 39.5531 39.4125 40.1156 38.7938 40.7531L38.4 41.1469L38.1187 40.9781C37.9594 40.8844 35.3625 39.4219 32.3531 37.7344L26.8875 34.6594L27.525 34.0688C28.575 33.1031 29.2969 32.8313 30.0469 33.1219C30.2062 33.1875 30.7969 33.4875 31.3594 33.7875C31.9219 34.0969 32.5031 34.3406 32.6437 34.3406C33.2437 34.3406 33.5156 33.5813 33.0562 33.1594C32.9344 33.0469 32.25 32.6531 31.5469 32.2969L30.2719 31.6406H29.4562C28.2656 31.65 27.9656 31.8188 25.8281 33.7031C24.8531 34.5656 23.8875 35.3531 23.7 35.4469C23.3156 35.6438 22.6594 35.6813 22.2562 35.5313C21.9 35.3906 20.25 34.1813 18.8906 33.0563C17.4469 31.8656 15.0844 29.4938 14.0344 28.1719C13.0969 27 12.0094 25.4063 11.4469 24.375C11.025 23.5969 10.95 23.0438 11.1937 22.4625C11.2594 22.2938 11.9719 21.4688 12.7594 20.6344C13.65 19.6969 14.325 18.8906 14.5312 18.5344C14.8406 17.9813 14.8594 17.9063 14.8594 17.0438V16.1344L12.5344 11.4844C9.99375 6.38438 9.83437 6.14064 8.82187 5.65314C8.18437 5.35313 7.11562 5.26876 6.49687 5.47501ZM8.20312 6.92813C8.41875 7.02188 8.70937 7.23751 8.85 7.41563C9 7.59376 10.1062 9.71251 11.3062 12.1219C13.2844 16.0781 13.5 16.5563 13.5 16.9781C13.5 17.2313 13.4344 17.5969 13.3594 17.775C13.2 18.1594 11.8125 19.6313 11.7094 19.5281C11.5875 19.3969 5.53125 7.99689 5.53125 7.90314C5.53125 7.75314 6.34687 7.03126 6.68437 6.89064C7.10625 6.70314 7.7625 6.72189 8.20312 6.92813Z" fill="#504587"/>
<path d="M24.9656 12.375C23.8125 12.6469 22.9594 13.8563 23.0906 15.0282C23.3438 17.1188 25.9219 17.9438 27.3281 16.3875C27.7969 15.8813 27.9469 15.4688 27.9469 14.7469C27.9469 13.1813 26.4844 12.0094 24.9656 12.375ZM25.9219 13.8188C26.7656 14.175 26.7656 15.3563 25.9219 15.7125C25.5 15.8813 25.1063 15.7969 24.7781 15.45C24.2906 14.9438 24.4969 14.0532 25.1719 13.7813C25.4438 13.6688 25.5656 13.6688 25.9219 13.8188Z" fill="#504587"/>
<path d="M32.0438 12.4125C31.5938 12.5344 31.4719 12.6094 30.9938 13.0219C30.0188 13.8937 30.0656 15.6937 31.0781 16.5844C31.5844 17.025 32.0156 17.1844 32.7188 17.1937C33.7594 17.1937 34.6781 16.5469 35.0156 15.5719C35.6438 13.7062 33.9375 11.8781 32.0438 12.4125ZM33.15 13.8375C34.35 14.4094 33.525 16.2187 32.3063 15.7125C31.8938 15.5437 31.6875 15.225 31.6875 14.7656C31.6875 14.3156 31.8844 13.9969 32.2875 13.8187C32.6719 13.6594 32.7656 13.6594 33.15 13.8375Z" fill="#504587"/>
<path d="M39.3094 12.3751C38.1563 12.6469 37.3031 13.8563 37.4344 15.0282C37.5563 16.0126 38.2688 16.8376 39.2625 17.1188C40.3781 17.4469 41.6906 16.7907 42.1594 15.6844C42.3656 15.1876 42.3375 14.2313 42.0938 13.7344C41.5875 12.6938 40.3969 12.1126 39.3094 12.3751ZM40.2656 13.8188C41.1094 14.1751 41.1094 15.3563 40.2656 15.7126C39.8438 15.8813 39.45 15.7969 39.1219 15.4501C38.6344 14.9438 38.8406 14.0532 39.5156 13.7813C39.7875 13.6688 39.9094 13.6688 40.2656 13.8188Z" fill="#504587"/>
</svg>
